<svg id="6831a803-036a-4d89-85fd-3263e0b10f7c" data-name="Layer 1" xmlns="http://www.w3.org/2000/svg" viewBox="0 0 131.56 22.78"><title>SuperPunch</title><path d="M11.34,4.85a1.55,1.55,0,0,1-.38.44.88.88,0,0,1-.51.14,1.34,1.34,0,0,1-.6-.17l-.72-.39a4.79,4.79,0,0,0-.91-.39A3.61,3.61,0,0,0,7,4.3a2.5,2.5,0,0,0-1.7.49A1.65,1.65,0,0,0,4.78,6.1,1.24,1.24,0,0,0,5.12,7a3,3,0,0,0,.88.6A9.42,9.42,0,0,0,7.25,8c.47.14.95.3,1.43.47a12.87,12.87,0,0,1,1.44.6,5.07,5.07,0,0,1,1.25.89,4.29,4.29,0,0,1,.88,1.32,4.69,4.69,0,0,1,.33,1.86,6.07,6.07,0,0,1-.42,2.27A5.31,5.31,0,0,1,11,17.29a5.66,5.66,0,0,1-2,1.24A7.38,7.38,0,0,1,6.32,19a8.66,8.66,0,0,1-1.66-.17A10,10,0,0,1,3,18.34a10.3,10.3,0,0,1-1.49-.73,6.09,6.09,0,0,1-1.21-.94l1.2-1.89a1,1,0,0,1,.37-.35,1,1,0,0,1,.52-.13,1.28,1.28,0,0,1,.72.23L4,15a7,7,0,0,0,1.06.5,3.85,3.85,0,0,0,1.42.23,2.73,2.73,0,0,0,1.72-.48,1.89,1.89,0,0,0,.61-1.55,1.42,1.42,0,0,0-.34-1,2.57,2.57,0,0,0-.88-.64,8.11,8.11,0,0,0-1.24-.44c-.47-.13-.94-.27-1.43-.43a10.92,10.92,0,0,1-1.43-.57,4.58,4.58,0,0,1-1.24-.9,4.29,4.29,0,0,1-.88-1.4,5.36,5.36,0,0,1-.34-2,4.76,4.76,0,0,1,.4-1.92A4.89,4.89,0,0,1,2.55,2.72,5.61,5.61,0,0,1,4.44,1.55,7,7,0,0,1,7,1.11a9,9,0,0,1,1.57.13A7.23,7.23,0,0,1,10,1.61a7.14,7.14,0,0,1,1.28.59A5.24,5.24,0,0,1,12.34,3Z"/><path d="M18.08,6.34v7.9a2.2,2.2,0,0,0,.42,1.43,1.53,1.53,0,0,0,1.24.5,2.6,2.6,0,0,0,1.14-.25,4.47,4.47,0,0,0,1-.71V6.34h3.72V18.79h-2.3a.88.88,0,0,1-.92-.63l-.22-.72a7.36,7.36,0,0,1-.75.63,4.19,4.19,0,0,1-.82.48,4.71,4.71,0,0,1-.94.31,4.84,4.84,0,0,1-1.11.12,4.25,4.25,0,0,1-1.8-.36,3.55,3.55,0,0,1-1.33-1,4.17,4.17,0,0,1-.81-1.5,6,6,0,0,1-.28-1.89V6.34Z"/><path d="M28.52,22.73V6.34h2.3a1,1,0,0,1,.59.16.88.88,0,0,1,.33.47l.27.91a5.29,5.29,0,0,1,.78-.72,5,5,0,0,1,.88-.56,5,5,0,0,1,1-.37,5.66,5.66,0,0,1,1.2-.13,3.92,3.92,0,0,1,1.8.43,4.24,4.24,0,0,1,1.43,1.25,6.39,6.39,0,0,1,.94,2,9.58,9.58,0,0,1,.34,2.68A8.23,8.23,0,0,1,40,15.05a6.48,6.48,0,0,1-1.09,2.07,5.15,5.15,0,0,1-1.68,1.37,4.87,4.87,0,0,1-2.17.49,4.11,4.11,0,0,1-1.63-.28,4.37,4.37,0,0,1-1.2-.74v4.77ZM34.59,9a3.38,3.38,0,0,0-.74.07,3,3,0,0,0-.61.23,2,2,0,0,0-.52.36,6,6,0,0,0-.48.51V15.4a2.43,2.43,0,0,0,.91.66,3,3,0,0,0,1,.18,2.28,2.28,0,0,0,1-.2,2,2,0,0,0,.75-.66,3.52,3.52,0,0,0,.5-1.17,7.3,7.3,0,0,0,.18-1.75,8.46,8.46,0,0,0-.14-1.65A3.36,3.36,0,0,0,36,9.72a1.49,1.49,0,0,0-.61-.59A1.79,1.79,0,0,0,34.59,9Z"/><path d="M47.72,6.15A6.53,6.53,0,0,1,50,6.53a5,5,0,0,1,1.77,1.12A5.25,5.25,0,0,1,52.9,9.44a6.73,6.73,0,0,1,.41,2.41,6.13,6.13,0,0,1,0,.68,1,1,0,0,1-.14.42.48.48,0,0,1-.25.22,1.25,1.25,0,0,1-.42.06H45.3a3.51,3.51,0,0,0,.94,2.26,2.84,2.84,0,0,0,2,.7A3.66,3.66,0,0,0,49.34,16a5.92,5.92,0,0,0,.83-.35l.68-.35a1.4,1.4,0,0,1,.64-.15.76.76,0,0,1,.67.32l1.08,1.33A5.66,5.66,0,0,1,52,17.92a6.52,6.52,0,0,1-1.37.64,7.27,7.27,0,0,1-1.4.33,10.64,10.64,0,0,1-1.34.09,6.92,6.92,0,0,1-2.46-.43,5.57,5.57,0,0,1-2-1.26,6.15,6.15,0,0,1-1.36-2.09,7.85,7.85,0,0,1-.49-2.91A6.63,6.63,0,0,1,42,9.93a5.86,5.86,0,0,1,1.23-2,5.78,5.78,0,0,1,1.93-1.33A6.32,6.32,0,0,1,47.72,6.15Zm.07,2.57a2.26,2.26,0,0,0-1.67.6,3.2,3.2,0,0,0-.79,1.75H50a3.08,3.08,0,0,0-.12-.86,2,2,0,0,0-.37-.75,1.94,1.94,0,0,0-.68-.54A2.41,2.41,0,0,0,47.79,8.72Z"/><path d="M55.45,18.79V6.34h2.21a2,2,0,0,1,.46,0,.75.75,0,0,1,.31.15.66.66,0,0,1,.19.27c0,.11.08.25.12.41l.2,1.16a6.38,6.38,0,0,1,1.53-1.67,3.19,3.19,0,0,1,1.87-.61,2.14,2.14,0,0,1,1.36.41l-.48,2.74A.52.52,0,0,1,63,9.6a.61.61,0,0,1-.38.1,3,3,0,0,1-.48,0,3.44,3.44,0,0,0-.7-.06,2.55,2.55,0,0,0-2.3,1.56v7.64Z"/><path d="M69.41,12.94v5.85h-4V1.3h6.17a10.19,10.19,0,0,1,3.17.44A6,6,0,0,1,76.88,3a4.56,4.56,0,0,1,1.27,1.81A6.16,6.16,0,0,1,78.56,7a6.57,6.57,0,0,1-.42,2.4,4.8,4.8,0,0,1-1.29,1.88,5.91,5.91,0,0,1-2.19,1.21,9.77,9.77,0,0,1-3.13.44Zm0-3.06h2.12a3,3,0,0,0,2.28-.75A3,3,0,0,0,74.5,7a3.16,3.16,0,0,0-.18-1.09,2.17,2.17,0,0,0-.54-.84,2.52,2.52,0,0,0-.93-.55,4,4,0,0,0-1.32-.19H69.41Z" style="fill:#fff"/><path d="M84.15,6.34v7.9a2.2,2.2,0,0,0,.42,1.43,1.53,1.53,0,0,0,1.24.5A2.6,2.6,0,0,0,87,15.92a4.47,4.47,0,0,0,1-.71V6.34h3.72V18.79h-2.3a.88.88,0,0,1-.92-.63l-.22-.72a7.36,7.36,0,0,1-.75.63,4.19,4.19,0,0,1-.82.48,4.71,4.71,0,0,1-.94.31,4.84,4.84,0,0,1-1.11.12,4.25,4.25,0,0,1-1.8-.36,3.55,3.55,0,0,1-1.33-1,4.17,4.17,0,0,1-.81-1.5,6,6,0,0,1-.28-1.89V6.34Z" style="fill:#fff"/><path d="M94.59,18.79V6.34h2.3a1,1,0,0,1,.59.16.88.88,0,0,1,.33.47l.21.72a7.36,7.36,0,0,1,.75-.63,4.19,4.19,0,0,1,.82-.48,4.61,4.61,0,0,1,1-.32,5.49,5.49,0,0,1,1.11-.11,4.41,4.41,0,0,1,1.8.35,3.77,3.77,0,0,1,1.33,1,4.17,4.17,0,0,1,.81,1.5,6,6,0,0,1,.28,1.89v7.91h-3.72V10.88a2.17,2.17,0,0,0-.42-1.42A1.51,1.51,0,0,0,100.49,9a2.55,2.55,0,0,0-1.15.26,4.52,4.52,0,0,0-1,.71v8.87Z" style="fill:#fff"/><path d="M117.49,9.29a2,2,0,0,1-.33.33.7.7,0,0,1-.44.12,1,1,0,0,1-.5-.13l-.5-.3a3.61,3.61,0,0,0-.65-.29,2.68,2.68,0,0,0-.92-.13,2.54,2.54,0,0,0-1.18.25,2.19,2.19,0,0,0-.82.72,3.12,3.12,0,0,0-.48,1.14,6.59,6.59,0,0,0-.16,1.53,4.65,4.65,0,0,0,.69,2.75,2.21,2.21,0,0,0,1.9,1,2.65,2.65,0,0,0,1-.16,3.47,3.47,0,0,0,.64-.36l.49-.37a.88.88,0,0,1,.55-.16.78.78,0,0,1,.68.32l1.08,1.33a6.07,6.07,0,0,1-1.22,1.08,5.81,5.81,0,0,1-1.3.64,6.4,6.4,0,0,1-1.34.33,9.69,9.69,0,0,1-1.3.09,5.76,5.76,0,0,1-2.18-.43,5.45,5.45,0,0,1-1.83-1.26,5.94,5.94,0,0,1-1.24-2,7.53,7.53,0,0,1-.47-2.74A7.64,7.64,0,0,1,108.1,10a5.42,5.42,0,0,1,3.13-3.38,6.75,6.75,0,0,1,2.68-.49,6.58,6.58,0,0,1,2.57.47,6.17,6.17,0,0,1,2,1.37Z" style="fill:#fff"/><path d="M120.17,18.79V.82h3.72V7.43a6.44,6.44,0,0,1,1.46-.93,4.67,4.67,0,0,1,1.88-.35A4.49,4.49,0,0,1,129,6.5a3.83,3.83,0,0,1,1.32,1,4.35,4.35,0,0,1,.82,1.5,6.35,6.35,0,0,1,.27,1.89v7.91h-3.72V10.88a2.17,2.17,0,0,0-.42-1.42A1.5,1.5,0,0,0,126.08,9a2.52,2.52,0,0,0-1.15.26,4.57,4.57,0,0,0-1,.71v8.87Z" style="fill:#fff"/></svg>